<?xml version="1.0" encoding="utf-8"?>
<!-- Generator: Adobe Illustrator 23.1.0, SVG Export Plug-In . SVG Version: 6.00 Build 0)  -->
<svg version="1.1" id="Layer_1" xmlns="http://www.w3.org/2000/svg" xmlns:xlink="http://www.w3.org/1999/xlink" x="0px" y="0px"
	 viewBox="0 0 226.77 198.43" style="enable-background:new 0 0 226.77 198.43;" xml:space="preserve">
<style type="text/css">
	.st0{fill:#B3B3B4;}
	.st1{fill:#79736E;}
</style>
<g>
	<path class="st0" d="M171.21,44.25c0-0.19,0.01-0.39,0.01-0.58c0-22.92-18.58-41.5-41.5-41.5s-41.5,18.58-41.5,41.5
		c0,0.17,0.01,0.34,0.01,0.51c-0.17,0-0.34-0.01-0.51-0.01c-22.92,0-41.5,18.58-41.5,41.5c0,21.05,15.68,38.43,36,41.13v0.17h1.44
		c1.33,0.13,2.69,0.2,4.06,0.2s2.72-0.07,4.06-0.2h72.44v-0.05c1.48,0.16,2.98,0.25,4.5,0.25c22.92,0,41.5-18.58,41.5-41.5
		C210.22,63.58,192.97,45.53,171.21,44.25z"/>
	<path class="st1" d="M141.26,101.05c0-0.19,0.01-0.39,0.01-0.58c0-22.92-18.58-41.5-41.5-41.5s-41.5,18.58-41.5,41.5
		c0,0.17,0.01,0.34,0.01,0.51c-0.17,0-0.34-0.01-0.51-0.01c-22.92,0-41.5,18.58-41.5,41.5c0,21.05,15.68,38.43,36,41.13v0.17h1.44
		c1.33,0.13,2.69,0.2,4.06,0.2s2.72-0.07,4.06-0.2h72.44v-0.05c1.48,0.16,2.98,0.25,4.5,0.25c22.92,0,41.5-18.58,41.5-41.5
		C180.28,120.38,163.02,102.33,141.26,101.05z"/>
</g>
</svg>
