<?xml version="1.0" encoding="utf-8"?>
<!-- Generator: Adobe Illustrator 23.1.0, SVG Export Plug-In . SVG Version: 6.00 Build 0)  -->
<svg version="1.1" id="Layer_1" xmlns="http://www.w3.org/2000/svg" xmlns:xlink="http://www.w3.org/1999/xlink" x="0px" y="0px"
	 viewBox="0 0 198.43 226.77" style="enable-background:new 0 0 198.43 226.77;" xml:space="preserve">
<style type="text/css">
	.st0{fill:#898480;}
	.st1{fill:#FFFFFF;stroke:#000000;stroke-miterlimit:10;}
</style>
<path class="st0" d="M136.95,47.5c0-0.19,0.01-0.39,0.01-0.58c0-22.92-18.58-41.5-41.5-41.5S53.97,24,53.97,46.92
	c0,0.17,0.01,0.34,0.01,0.51c-0.17,0-0.34-0.01-0.51-0.01c-22.92,0-41.5,18.58-41.5,41.5c0,21.05,15.68,38.43,36,41.13v0.17h1.44
	c1.33,0.13,2.69,0.2,4.06,0.2s2.72-0.07,4.06-0.2h72.44v-0.05c1.48,0.16,2.98,0.25,4.5,0.25c22.92,0,41.5-18.58,41.5-41.5
	C175.97,66.84,158.71,48.79,136.95,47.5z"/>
<g>
	<circle class="st1" cx="65.11" cy="207.02" r="10.38"/>
	<circle class="st1" cx="93.92" cy="186.27" r="10.38"/>
	<circle class="st1" cx="143.48" cy="168.77" r="10.38"/>
	<circle class="st1" cx="112.36" cy="148.02" r="10.38"/>
	<circle class="st1" cx="122.73" cy="207.02" r="10.38"/>
	<circle class="st1" cx="60.11" cy="158.39" r="10.38"/>
</g>
</svg>
